<mxfile host="app.diagrams.net" modified="2024-03-20T13:19:04.937Z" agent="Mozilla/5.0 (Windows NT 10.0; Win64; x64) AppleWebKit/537.36 (KHTML, like Gecko) Chrome/122.0.0.0 Safari/537.36" version="24.0.7" etag="36VBcKfb4uJo3yxGmerS" type="github">
  <diagram name="Page-1" id="KXtA9CCBEPArm0Khk1B5">
    <mxGraphModel>
      <root>
        <mxCell id="0" />
        <mxCell id="1" parent="0" />
      </root>
    </mxGraphModel>
  </diagram>
</mxfile>
